HIERARCHY
ROOT root
{
	OFFSET	0	13.1	24.9
	CHANNELS 6  Xposition Yposition Zposition Xrotation Yrotation Zrotation
	JOINT spine_1
	{
		OFFSET	0	9.99999	0
		CHANNELS 3  Xrotation Yrotation Zrotation
		JOINT spine_2
		{
			OFFSET	0	112	-10
			CHANNELS 3  Xrotation Yrotation Zrotation
			JOINT spine_3
			{
				OFFSET	0	206.5	19.3
				CHANNELS 3  Xrotation Yrotation Zrotation
				JOINT spine_4
				{
					OFFSET	0	110.4	14.6
					CHANNELS 3  Xrotation Yrotation Zrotation
					JOINT neck_1
					{
						OFFSET	0	71.8	-50.3
						CHANNELS 3  Xrotation Yrotation Zrotation
						JOINT neck_2
						{
							OFFSET	0	86.2	-25.8
							CHANNELS 3  Xrotation Yrotation Zrotation
							JOINT head_ee
							{
								OFFSET	0	179.8	-8.7
								CHANNELS 3  Xrotation Yrotation Zrotation
								End Site
								{
									OFFSET	1	0	0
								}
							}
						}
					}
					JOINT left_clavicle
					{
						OFFSET	-43.2	22.4	-70.8
						CHANNELS 3  Xrotation Yrotation Zrotation
						JOINT left_shoulder
						{
							OFFSET	-93.9	-5.79999	48.7
							CHANNELS 3  Xrotation Yrotation Zrotation
							JOINT left_elbow
							{
								OFFSET	-291.4	-30.8	15.2
								CHANNELS 3  Xrotation Yrotation Zrotation
								JOINT left_lowarm_twist
								{
									OFFSET	-110.7	-3.89999	13.6
									CHANNELS 3  Xrotation Yrotation Zrotation
									JOINT left_hand
									{
										OFFSET	-110.7	-3.89999	13.6
										CHANNELS 3  Xrotation Yrotation Zrotation
										JOINT left_ee
										{
											OFFSET	-80.8	-5.10001	12.1
											CHANNELS 3  Xrotation Yrotation Zrotation
											End Site
											{
												OFFSET	1	0	0
											}
										}
									}
								}
							}
						}
					}
					JOINT right_clavicle
					{
						OFFSET	43.2	22.4	-70.8
						CHANNELS 3  Xrotation Yrotation Zrotation
						JOINT right_shoulder
						{
							OFFSET	93.9	-5.79999	48.7
							CHANNELS 3  Xrotation Yrotation Zrotation
							JOINT right_elbow
							{
								OFFSET	291.4	-30.8	15.2
								CHANNELS 3  Xrotation Yrotation Zrotation
								JOINT right_lowarm_twist
								{
									OFFSET	110.7	-3.89999	13.6
									CHANNELS 3  Xrotation Yrotation Zrotation
									JOINT right_hand
									{
										OFFSET	110.7	-3.89999	13.6
										CHANNELS 3  Xrotation Yrotation Zrotation
										JOINT right_ee
										{
											OFFSET	80.8	-5.10001	12.1
											CHANNELS 3  Xrotation Yrotation Zrotation
											End Site
											{
												OFFSET	1	0	0
											}
										}
									}
								}
							}
						}
					}
				}
			}
		}
	}
	JOINT left_hip
	{
		OFFSET	-82.8	-127.5	0.300001
		CHANNELS 3  Xrotation Yrotation Zrotation
		JOINT left_knee
		{
			OFFSET	-28.2	-396.7	2.2
			CHANNELS 3  Xrotation Yrotation Zrotation
			JOINT left_ankle
			{
				OFFSET	-11.7	-411.3	35.4
				CHANNELS 3  Xrotation Yrotation Zrotation
				JOINT left_toes
				{
					OFFSET	0	-60	-88.6
					CHANNELS 3  Xrotation Yrotation Zrotation
					JOINT left_foot_ee
					{
						OFFSET	-22.5	-16.5	-42.2
						CHANNELS 3  Xrotation Yrotation Zrotation
						End Site
						{
							OFFSET	1	0	0
						}
					}
				}
			}
		}
	}
	JOINT right_hip
	{
		OFFSET	82.8	-127.5	0.300001
		CHANNELS 3  Xrotation Yrotation Zrotation
		JOINT right_knee
		{
			OFFSET	28.2	-396.7	2.2
			CHANNELS 3  Xrotation Yrotation Zrotation
			JOINT right_ankle
			{
				OFFSET	11.7	-411.3	35.4
				CHANNELS 3  Xrotation Yrotation Zrotation
				JOINT right_toes
				{
					OFFSET	0	-60	-88.6
					CHANNELS 3  Xrotation Yrotation Zrotation
					JOINT right_foot_ee
					{
						OFFSET	22.5	-16.5	-42.2
						CHANNELS 3  Xrotation Yrotation Zrotation
						End Site
						{
							OFFSET	1	0	0
						}
					}
				}
			}
		}
	}
}
MOTION
Frames: 5
Frame Time: 0.02
2822.99586436 698.22 -1623.50597241 -10.7265406201 65.9833446122 5.03200725168 2.85208 0.463201 3.64085 2.85942 0.230744 3.66291 2.8722 -0.362041 3.65228 2.85366 0.218913 3.66363 -9.06811 11.5326 -0.165858 -9.1751 21.7543 2.58596 -0.0 0.0 -0.0 -6.21904 12.1036 -9.12671 6.04759 -41.3068 56.5582 0.902603 -24.0902 0.192601 -42.4169 -3.21179 4.22879 1.1837 12.2188 12.6223 -0.0 0.0 -0.0 12.1891 17.5875 -24.5183 -9.05949 0.627344 -69.5061 0.157881 4.47209 -0.00616467 8.64613 -0.223439 1.08081 2.44291 26.0879 -4.73698 0.0 0.0 0.0 5.43298 -1.09255 7.27313 -4.13254 0.147953 0.616825 36.4721 12.5253 -4.57423 -33.6973 0.0 0.0 -0.0 0.0 -0.0 29.5584 19.8438 -0.813619 -65.7423 2.8509 -9.12632 37.9928 -11.2298 4.70548 10.5402 -0.0 -0.0 0.0 0.0 0.0 
2813.85777691 702.386 -1609.42329541 -10.5925514284 66.416949118 4.92262856011 2.55028 0.556288 3.62655 2.55754 0.324552 3.65454 2.57695 -0.286797 3.6577 2.55841 0.29407 3.65712 -8.41393 11.8763 -0.0229814 -8.49032 22.2407 2.68107 -0.0 0.0 -0.0 -5.93648 11.6791 -8.74784 7.91496 -42.3368 55.1631 0.978848 -25.8679 0.224802 -44.0257 -3.38911 4.33457 0.0380304 16.561 6.98599 -0.0 0.0 -0.0 11.7697 16.7591 -23.5992 -11.1979 -1.42953 -68.7178 0.173786 4.92049 -0.00746682 8.62338 -0.223067 1.07793 2.21557 25.4102 -3.60077 0.0 0.0 0.0 4.23818 0.0408477 8.26543 -2.09026 0.0804039 0.31069 38.1168 14.1774 -4.74875 -34.2693 0.0 0.0 -0.0 0.0 -0.0 32.6406 20.857 -1.8243 -64.5233 2.7077 -9.00421 36.9764 -16.3681 4.67198 9.7773 -0.0 -0.0 0.0 0.0 0.0 
2816.5860432 702.386 -1594.73676138 -11.6801851229 68.6987734766 6.09914384633 2.55028 0.556288 3.62655 2.55754 0.324552 3.65454 2.57695 -0.286797 3.6577 2.55841 0.29407 3.65712 -8.41393 11.8763 -0.0229814 -8.49032 22.2407 2.68107 -0.0 0.0 -0.0 -5.93648 11.6791 -8.74784 7.91496 -42.3368 55.1631 0.978848 -25.8679 0.224802 -44.0257 -3.38911 4.33457 0.0380304 16.561 6.98599 -0.0 0.0 -0.0 11.7697 16.7591 -23.5992 -11.1979 -1.42953 -68.7178 0.173786 4.92049 -0.00746682 8.62338 -0.223067 1.07793 2.21557 25.4102 -3.60077 0.0 0.0 0.0 4.23818 0.0408477 8.26543 -2.09026 0.0804039 0.31069 38.1168 14.1774 -4.74875 -34.2693 0.0 0.0 -0.0 0.0 -0.0 32.6406 20.857 -1.8243 -64.5233 2.7077 -9.00421 36.9764 -16.3681 4.67198 9.7773 -0.0 -0.0 0.0 0.0 0.0 
2808.89425381 698.352 -1583.51130687 -11.3913848959 69.8567829491 5.85677707178 2.20646 0.596289 3.54342 2.21337 0.369752 3.57413 2.23592 -0.25013 3.58447 2.21813 0.318738 3.57903 -7.88565 11.9993 -0.0141025 -7.93361 22.4127 2.61399 -0.0 0.0 -0.0 -6.00691 11.7977 -8.83934 10.4026 -43.0833 54.518 1.05486 -27.5885 0.258994 -45.1955 -3.51987 4.40834 -0.840199 19.5776 2.87937 -0.0 0.0 -0.0 11.4127 16.1921 -22.8127 -12.2075 -2.97186 -67.984 0.179348 5.07716 -0.00795142 8.69162 -0.224181 1.08657 2.02712 24.8463 -2.65182 0.0 0.0 0.0 3.09576 0.749491 8.87584 -0.612608 0.0247395 0.0907561 39.4366 15.3636 -4.88726 -34.5994 0.0 0.0 -0.0 0.0 -0.0 35.3476 21.5826 -2.59755 -63.0358 2.53656 -8.85116 36.3637 -20.0549 4.67982 9.24932 -0.0 -0.0 0.0 0.0 0.0 
2775.02552803 705.556 -1576.234682 -12.4250352121 69.6735893938 6.38848831317 1.70349 0.937593 3.44674 1.70981 0.716506 3.49933 1.75436 0.0749578 3.57106 1.73714 0.637647 3.51454 -6.91379 11.8108 -1.11854 -6.89721 22.7524 1.28067 -0.0 0.0 -0.0 -2.82328 13.6901 -3.01502 18.1632 -43.4125 51.9188 1.33077 -33.3922 0.399168 -52.2143 -4.33344 4.79367 -3.99636 28.9681 -10.2348 -0.0 0.0 -0.0 10.5918 13.0762 -21.0785 -18.1851 -6.8451 -67.0408 0.187505 5.30681 -0.00868967 10.394 -0.248648 1.30265 1.53827 24.2616 0.246236 0.0 0.0 0.0 -0.091052 4.26167 11.0088 -0.686506 0.0276582 0.101721 41.7023 19.9643 -5.182 -36.6971 0.0 0.0 -0.0 0.0 -0.0 37.3012 21.9542 -2.70096 -42.9077 0.662037 -6.40046 28.0854 -26.5185 3.91914 3.09921 -0.0 -0.0 0.0 0.0 0.0 
